<svg xmlns="http://www.w3.org/2000/svg" xmlns:svg="http://www.w3.org/2000/svg" xmlns:xlink="http://www.w3.org/1999/xlink" id="svg8" width="512" height="512" enable-background="new 0 0 64 64" version="1.1" viewBox="0 0 512 512"><metadata id="metadata14"/><defs id="defs12"><linearGradient id="linearGradient4579"><stop id="stop4575" offset="0" style="stop-color:#000;stop-opacity:1"/><stop id="stop4577" offset="1" style="stop-color:#000;stop-opacity:0"/></linearGradient><linearGradient id="linearGradient4585" x1="18.288" x2="489.857" y1="262.984" y2="262.984" gradientUnits="userSpaceOnUse" xlink:href="#linearGradient4579"/></defs><circle id="path6150" cx="256" cy="256" r="256" style="fill:#69c8a4;fill-opacity:1;stroke:none;stroke-width:13.9001236;stroke-miterlimit:4;stroke-dasharray:none;stroke-opacity:1"/><path style="fill:#df394c;stroke:none;stroke-width:10.40000153;stroke-miterlimit:4;stroke-dasharray:none;stroke-opacity:1" id="path6-9" d="m 504.62901,86.82281 -137.34125,153.89564 131.4477,32.85421 -134.34048,25.37157 58.38778,56.42069 -112.52511,-15.58241 -16.00668,140.08746 -44.55646,-99.62718 -49.99487,64.07304 -0.26228,-96.16356 L 11.113827,451.48992 148.45509,297.59427 17.084516,264.69377 151.40186,239.29906 92.99094,182.90923 205.57776,198.49165 221.57674,58.327041 266.0869,158.01593 316.06635,93.90432 316.3672,190.10645 504.65215,86.79195 m -171.56086,203.21939 97.66781,-18.44433 -91.42712,-22.89536 94.71332,-106.09928 -133.83907,73.41478 -0.23143,-75.99899 -37.7295,48.39034 -31.26512,-69.88945 -11.03111,96.62641 -83.60507,-11.5171 46.28441,44.65674 -97.6601,18.44433 91.45799,22.8645 -94.75961,106.14556 133.86993,-73.44563 0.18514,76.02985 37.76036,-48.39035 31.23426,69.88945 11.10054,-96.67269 83.55107,11.57881 -46.28441,-44.67987"/><path style="fill:#fbb041;stroke-width:7.71406746" id="path2" d="m 308.22886,203.06609 -0.30857,-86.08128 -43.76962,56.23555 -37.89921,-84.76989 -13.49962,118.3878 -98.08436,-13.56133 52.33994,50.55028 L 50.987846,265.72746 162.39441,293.63695 46.374833,423.6267 207.45228,335.23892 l 0.23142,86.09671 43.90076,-56.26641 37.8915,84.7776 13.4919,-118.38779 98.03037,13.56904 L 348.67371,294.4855 464.69329,272.57755 353.30215,244.71434 469.32173,114.70916 Z"/><path style="fill:#ff0;stroke-width:7.71406746" id="path4" d="m 282.98071,236.20572 -0.13885,-42.85164 -21.8231,28.00206 -18.89175,-42.24223 -6.78838,58.97404 -48.82233,-6.74209 26.06583,25.18643 -57.77836,10.90769 55.51043,13.91618 -57.83237,64.76731 80.27259,-44.07818 0.13885,42.92107 21.79996,-28.03292 18.89946,42.28852 6.80381,-59.02033 48.85319,6.75752 -26.06583,-25.171 57.80922,-10.9077 -55.57215,-13.90074 57.80923,-64.79046 z"/><path style="fill:#df394c;stroke:none;stroke-opacity:1;stroke-width:10.40000153;stroke-miterlimit:4;stroke-dasharray:none" id="path6" d="m 504.62901,86.82281 -137.34125,153.89564 131.4477,32.85421 -134.34048,25.37157 58.38778,56.42069 -112.52511,-15.58241 -16.00668,140.08746 -44.55646,-99.62718 -49.99487,64.07304 -0.26228,-96.16356 L 11.11383,451.48992 148.45509,297.59427 17.084519,264.69377 151.40186,239.29906 92.990944,182.90923 205.57776,198.49165 221.57674,58.327041 266.0869,158.01593 316.06635,93.90432 316.3672,190.10645 504.65215,86.79195 m -171.56086,203.21939 97.66781,-18.44433 -91.42712,-22.89536 94.71332,-106.09928 -133.83907,73.41478 -0.23143,-75.99899 -37.7295,48.39034 -31.26512,-69.88945 -11.03111,96.62641 -83.60507,-11.5171 46.28441,44.65674 -97.660097,18.44433 91.457987,22.8645 -94.759608,106.14556 133.869928,-73.44563 0.18514,76.02985 37.76036,-48.39035 31.23426,69.88945 11.10054,-96.67269 83.55107,11.57881 -46.28441,-44.67987"/><text id="text3731" x="44.164" y="373.939" xml:space="preserve" style="font-style:normal;font-variant:normal;font-weight:400;font-stretch:normal;font-size:346.66665649px;line-height:1.25;font-family:Quicksand;-inkscape-font-specification:'Quicksand, Normal';font-variant-ligatures:normal;font-variant-caps:normal;font-variant-numeric:normal;font-feature-settings:normal;text-align:start;letter-spacing:0;word-spacing:0;writing-mode:lr-tb;text-anchor:start;fill:#000;fill-opacity:1;stroke:#fff;stroke-width:10;stroke-miterlimit:4;stroke-dasharray:none;stroke-opacity:1"><tspan style="font-style:normal;font-variant:normal;font-weight:400;font-stretch:normal;font-size:346.66665649px;font-family:Quicksand;-inkscape-font-specification:'Quicksand, Normal';font-variant-ligatures:normal;font-variant-caps:normal;font-variant-numeric:normal;font-feature-settings:normal;text-align:start;writing-mode:lr-tb;text-anchor:start;stroke:#fff;stroke-width:10;stroke-miterlimit:4;stroke-dasharray:none;stroke-opacity:1" id="tspan3729" x="44.164" y="373.939">XD</tspan></text></svg>